<svg width="4098" height="650" viewBox="0 0 4098 650" fill="none" xmlns="http://www.w3.org/2000/svg">
<path d="M7.2902 426.17L305.09 272.67L420.59 371.77L704.09 237.37L689.49 207.17L785.99 216.67L731.69 289.87L717.09 259.67L605.09 310.47V456.07C605.09 468.87 594.69 479.37 581.79 479.37H576.59C563.79 479.37 553.29 468.97 553.29 456.07V336.27L489.49 364.67V626.57C489.49 639.37 479.09 649.87 466.19 649.87H461.89C449.09 649.87 438.59 639.47 438.59 626.57V392.17L413.59 405.07L389.49 382.67V449.87C389.49 462.67 379.09 473.17 366.19 473.17H356.69C343.89 473.17 333.39 462.77 333.39 449.87V334.37L297.19 302.47L270.49 316.27V527.37C270.49 540.17 260.09 550.67 247.19 550.67C234.39 550.67 223.89 540.27 223.89 527.37V339.57L166.19 368.87V455.07C166.19 467.87 155.79 478.37 142.89 478.37H140.29C127.49 478.37 116.99 467.97 116.99 455.07V396.07L19.5902 449.57C12.7902 453.27 4.2902 450.57 0.990203 443.57C-2.1098 437.07 0.590203 429.27 6.9902 425.97L7.2902 426.17Z" fill="#0C70B5"/>
<path d="M116.69 353.47L164.99 324.77V188.97C164.99 176.17 154.59 165.67 141.69 165.67H139.99C127.19 165.67 116.69 176.07 116.69 188.97V353.57V353.47Z" fill="#2D2E2F"/>
<path d="M243.89 86.97H248.39C262.59 86.97 274.09 98.47 274.09 112.67V271.37L220.69 298.37V110.17C220.69 97.37 231.09 86.87 243.99 86.87L243.89 86.97Z" fill="#2D2E2F"/>
<path d="M358.19 168.47H363.89C376.69 168.47 387.19 178.87 387.19 191.77V325.87L334.89 279.37V191.77C334.89 178.97 345.29 168.47 358.19 168.47Z" fill="#2D2E2F"/>
<path d="M462.19 0.77002H467.89C480.69 0.77002 491.19 11.17 491.19 24.07V319.57L438.89 341.97V24.07C438.89 11.27 449.29 0.77002 462.19 0.77002Z" fill="#2D2E2F"/>
<path d="M554.89 288.57L603.69 267.27V188.87C603.69 176.07 593.29 165.57 580.39 165.57H578.09C565.29 165.57 554.79 175.97 554.79 188.87V288.57H554.89Z" fill="#2D2E2F"/>
<path d="M2864.39 504.17C2808.99 504.17 2753.09 484.87 2709.19 445.67L2756.79 388.67C2789.69 415.87 2824.19 433.07 2865.99 433.07C2898.89 433.07 2918.79 419.97 2918.79 398.57V397.57C2918.79 377.17 2906.29 366.77 2845.09 351.07C2771.39 332.27 2723.79 311.87 2723.79 239.17V238.17C2723.79 171.77 2777.09 127.87 2851.79 127.87C2905.09 127.87 2950.59 144.57 2987.69 174.37L2945.89 234.97C2913.49 212.47 2881.59 198.87 2850.79 198.87C2819.99 198.87 2803.79 212.97 2803.79 230.77V231.77C2803.79 255.77 2819.49 263.67 2882.69 279.87C2956.89 299.17 2998.69 325.87 2998.69 389.67V390.67C2998.69 463.37 2943.29 504.07 2864.39 504.07V504.17Z" fill="#0C70B5"/>
<path d="M3226.59 207.37V498.97H3146.09V207.37H3034.79V133.17H3337.89V207.37H3226.59Z" fill="#0C70B5"/>
<path d="M3624.89 498.97L3591.39 416.87H3436.69L3403.19 498.97H3321.09L3477.89 130.47H3552.09L3708.89 498.97H3624.79H3624.89ZM3514.09 227.17L3465.49 345.77H3562.69L3514.09 227.17Z" fill="#0C70B5"/>
<path d="M3983.39 498.97L3901.29 373.57L3818.69 498.97H3727.19L3854.69 312.87L3732.39 133.07H3826.49L3903.29 251.67L3946.29 185.77L4036.19 185.47L3949.79 311.67L4077.29 498.77H3983.19L3983.39 498.97Z" fill="#0C70B5"/>
<path d="M4040.29 150.17H3968.99C3961.76 150.17 3955.89 156.035 3955.89 163.27C3955.89 170.505 3961.76 176.37 3968.99 176.37H4040.29C4047.53 176.37 4053.39 170.505 4053.39 163.27C4053.39 156.035 4047.53 150.17 4040.29 150.17Z" fill="#2D2E2F"/>
<path d="M4060.69 115.67H3989.39C3982.16 115.67 3976.29 121.535 3976.29 128.77C3976.29 136.005 3982.16 141.87 3989.39 141.87H4060.69C4067.92 141.87 4073.79 136.005 4073.79 128.77C4073.79 121.535 4067.92 115.67 4060.69 115.67Z" fill="#2D2E2F"/>
<path d="M4084.69 81.17H4013.39C4006.16 81.17 4000.29 87.0351 4000.29 94.27C4000.29 101.505 4006.16 107.37 4013.39 107.37H4084.69C4091.92 107.37 4097.79 101.505 4097.79 94.27C4097.79 87.0351 4091.92 81.17 4084.69 81.17Z" fill="#2D2E2F"/>
<path d="M945.59 284.17C947.69 288.77 951.59 293.07 957.29 296.97C962.99 300.97 970.79 304.57 980.69 307.97C990.59 311.37 1003.19 314.87 1018.49 318.47C1035.29 322.77 1050.19 327.47 1063.19 332.67C1076.19 337.87 1086.99 344.17 1095.49 351.67C1104.09 359.17 1110.59 367.87 1114.99 377.77C1119.39 387.67 1121.69 399.37 1121.69 412.77C1121.69 428.07 1118.89 441.57 1113.29 453.47C1107.69 465.37 1099.89 475.47 1089.89 483.67C1079.89 491.87 1067.89 498.17 1053.89 502.47C1039.89 506.77 1024.49 508.87 1007.69 508.87C982.99 508.87 959.39 504.67 936.79 496.27C914.19 487.87 893.29 474.97 874.09 457.57L907.99 417.27C923.59 430.67 939.29 440.97 955.09 448.17C970.89 455.37 988.99 458.97 1009.09 458.97C1026.49 458.97 1040.29 455.27 1050.49 447.97C1060.69 440.67 1065.79 430.77 1065.79 418.27C1065.79 412.47 1064.79 407.27 1062.79 402.67C1060.79 398.07 1057.09 393.87 1051.79 390.07C1046.39 386.27 1039.09 382.67 1029.79 379.27C1020.49 375.97 1008.29 372.37 993.29 368.77C976.19 364.77 960.99 360.37 947.69 355.47C934.39 350.57 923.19 344.47 914.19 337.17C905.19 329.87 898.29 320.97 893.49 310.67C888.79 300.27 886.39 287.67 886.39 272.67C886.39 258.67 889.09 245.87 894.59 234.47C899.99 223.07 907.49 213.17 917.09 204.97C926.59 196.77 938.09 190.37 951.49 185.97C964.89 181.57 979.49 179.37 995.39 179.37C1018.89 179.37 1039.99 182.77 1058.79 189.67C1077.59 196.57 1095.19 206.57 1111.69 219.67L1081.49 262.17C1066.89 251.47 1052.39 243.37 1037.99 237.67C1023.59 231.97 1009.19 229.17 994.49 229.17C977.99 229.17 965.19 232.87 956.09 240.37C946.89 247.87 942.39 256.97 942.39 267.57C942.39 273.97 943.49 279.47 945.59 284.07V284.17Z" fill="#2D2E2F"/>
<path d="M1265.89 448.57C1278.39 459.07 1293.69 464.37 1311.69 464.37C1325.39 464.37 1337.29 461.97 1347.39 457.07C1357.49 452.17 1367.39 444.97 1377.09 435.57L1409.59 464.37C1397.99 478.07 1384.19 489.07 1368.19 497.27C1352.19 505.47 1332.99 509.67 1310.79 509.67C1293.39 509.67 1277.19 506.67 1262.09 500.47C1246.99 494.37 1233.89 485.87 1222.69 474.87C1211.59 463.87 1202.79 450.67 1196.39 435.27C1189.99 419.87 1186.79 402.67 1186.79 383.77C1186.79 366.37 1189.69 350.07 1195.49 334.77C1201.29 319.57 1209.49 306.17 1219.99 294.77C1230.49 283.37 1242.89 274.27 1257.29 267.57C1271.59 260.87 1287.49 257.47 1304.89 257.47C1324.09 257.47 1340.99 260.97 1355.49 267.97C1369.99 274.97 1381.99 284.47 1391.59 296.37C1401.19 308.27 1408.49 322.17 1413.29 337.97C1418.19 353.87 1420.59 370.47 1420.59 387.87C1420.59 390.37 1420.59 392.77 1420.39 395.17C1420.19 397.57 1419.99 400.17 1419.69 402.97H1242.19C1245.59 422.77 1253.49 437.97 1265.99 448.47L1265.89 448.57ZM1365.59 366.47C1364.69 357.67 1362.69 349.27 1359.69 341.57C1356.59 333.77 1352.49 327.07 1347.29 321.47C1342.09 315.87 1335.89 311.37 1328.79 307.97C1321.69 304.57 1313.49 302.97 1304.29 302.97C1287.19 302.97 1273.09 308.87 1261.99 320.57C1250.89 332.27 1244.09 347.67 1241.59 366.57H1365.59V366.47Z" fill="#2D2E2F"/>
<path d="M1664.89 497.17C1649.59 505.57 1630.29 509.77 1606.79 509.77C1588.79 509.77 1572.19 506.47 1556.89 499.97C1541.59 493.37 1528.39 484.37 1517.19 472.97C1505.99 461.57 1497.19 448.27 1490.89 433.17C1484.59 418.07 1481.39 401.87 1481.39 384.47C1481.39 367.07 1484.59 350.77 1490.89 335.47C1497.19 320.17 1505.99 306.77 1517.19 295.17C1528.39 283.57 1541.79 274.47 1557.19 267.67C1572.59 260.87 1589.29 257.57 1607.29 257.57C1630.19 257.57 1649.19 261.37 1664.29 268.97C1679.39 276.57 1692.59 286.67 1703.89 299.17L1669.59 336.27C1661.09 327.47 1651.99 320.17 1642.39 314.57C1632.79 308.97 1620.99 306.07 1606.89 306.07C1596.79 306.07 1587.49 308.17 1578.99 312.27C1570.49 316.37 1563.09 321.97 1556.99 328.97C1550.89 335.97 1546.09 344.17 1542.59 353.47C1539.09 362.77 1537.29 372.77 1537.29 383.47C1537.29 394.17 1539.09 404.67 1542.59 414.17C1546.09 423.67 1551.09 431.87 1557.49 438.87C1563.89 445.87 1571.49 451.47 1580.39 455.57C1589.19 459.67 1598.99 461.77 1609.69 461.77C1622.79 461.77 1634.29 458.97 1644.29 453.27C1654.19 447.67 1663.59 440.37 1672.39 431.57L1705.79 464.47C1693.89 477.87 1680.29 488.77 1665.09 497.17H1664.89Z" fill="#2D2E2F"/>
<path d="M2001.89 432.37C1995.29 447.67 1986.29 460.97 1974.89 472.37C1963.49 483.77 1949.79 492.87 1933.99 499.57C1918.09 506.27 1900.89 509.67 1882.29 509.67C1863.69 509.67 1846.99 506.37 1831.29 499.87C1815.59 493.27 1801.99 484.27 1790.59 472.87C1779.19 461.47 1770.19 448.17 1763.79 433.07C1757.39 417.97 1754.19 401.77 1754.19 384.37C1754.19 366.97 1757.49 350.57 1763.99 335.17C1770.49 319.77 1779.59 306.37 1790.99 294.87C1802.39 283.47 1815.99 274.37 1831.69 267.67C1847.39 260.97 1864.59 257.57 1883.19 257.57C1901.79 257.57 1918.99 260.87 1934.69 267.37C1950.39 273.97 1963.99 282.97 1975.39 294.37C1986.79 305.77 1995.79 319.17 2002.19 334.37C2008.59 349.67 2011.79 365.97 2011.79 383.37C2011.79 400.77 2008.49 417.07 2001.99 432.37H2001.89ZM1950.49 354.17C1946.89 344.67 1941.79 336.37 1935.29 329.27C1928.79 322.07 1921.09 316.47 1912.09 312.37C1903.09 308.27 1893.19 306.17 1882.29 306.17C1871.39 306.17 1861.49 308.27 1852.49 312.37C1843.49 316.47 1835.89 322.07 1829.49 329.07C1823.09 336.07 1818.29 344.27 1814.89 353.57C1811.49 362.87 1809.89 372.87 1809.89 383.57C1809.89 394.27 1811.69 404.37 1815.39 413.97C1818.99 423.57 1824.09 431.87 1830.59 438.87C1837.09 445.87 1844.79 451.47 1853.79 455.57C1862.79 459.67 1872.49 461.77 1883.09 461.77C1894.29 461.77 1904.39 459.67 1913.29 455.57C1922.19 451.47 1929.89 445.87 1936.29 438.87C1942.69 431.87 1947.49 423.67 1950.89 414.37C1954.19 405.07 1955.89 395.07 1955.89 384.37C1955.89 373.67 1954.09 363.67 1950.39 354.17H1950.49Z" fill="#2D2E2F"/>
<path d="M2142.09 504.17H2086.29V262.57H2142.09V300.47C2146.09 294.67 2150.39 289.17 2155.09 284.07C2159.79 278.97 2165.29 274.47 2171.49 270.47C2177.69 266.47 2184.59 263.27 2191.99 260.97C2199.49 258.67 2207.89 257.47 2217.29 257.47C2244.69 257.47 2265.79 265.87 2280.69 282.67C2295.59 299.47 2303.09 321.97 2303.09 350.37V504.07H2247.29V367.17C2247.29 348.27 2242.79 333.77 2233.89 323.57C2224.99 313.37 2212.29 308.27 2195.99 308.27C2179.69 308.27 2166.99 313.57 2156.99 323.97C2146.99 334.47 2141.99 349.17 2141.99 368.07V504.07L2142.09 504.17Z" fill="#2D2E2F"/>
<path d="M2569.99 504.17V463.87C2561.19 476.37 2550.09 487.07 2536.89 495.87C2523.69 504.67 2507.29 509.17 2487.79 509.17C2473.49 509.17 2459.59 506.47 2446.29 500.97C2432.99 495.47 2420.99 487.27 2410.69 476.47C2400.39 465.67 2391.99 452.47 2385.59 436.87C2379.19 421.27 2375.99 403.47 2375.99 383.37C2375.99 363.27 2379.09 345.37 2385.39 329.87C2391.69 314.37 2399.89 301.07 2410.29 290.27C2420.59 279.47 2432.59 271.27 2446.09 265.77C2459.59 260.27 2473.59 257.57 2487.89 257.57C2507.69 257.57 2524.09 261.87 2537.19 270.37C2550.29 278.87 2561.19 288.87 2570.09 300.07V170.17H2625.89V504.17H2570.09H2569.99ZM2565.19 351.37C2561.39 341.87 2556.29 333.77 2549.89 326.87C2543.49 319.97 2536.09 314.77 2527.59 311.07C2519.09 307.37 2510.29 305.57 2501.09 305.57C2491.89 305.57 2482.79 307.37 2474.39 310.87C2465.99 314.37 2458.69 319.47 2452.29 326.17C2445.89 332.87 2440.89 341.07 2437.29 350.67C2433.69 360.27 2431.79 371.17 2431.79 383.37C2431.79 395.57 2433.59 405.97 2437.29 415.67C2440.99 425.37 2445.99 433.47 2452.29 440.17C2458.69 446.87 2466.09 452.07 2474.39 455.77C2482.79 459.47 2491.69 461.27 2501.09 461.27C2510.49 461.27 2518.99 459.47 2527.59 455.77C2536.09 452.07 2543.59 446.87 2549.89 439.97C2556.19 433.07 2561.39 424.97 2565.19 415.47C2568.99 406.07 2570.89 395.37 2570.89 383.47C2570.89 371.57 2568.99 360.87 2565.19 351.47V351.37Z" fill="#2D2E2F"/>
</svg>
